{"title":"Six.Nations-Italy.v.Ireland-2013.02.03.720p.x264","uid":8101134,"size":2906343859,"categoryP":"video","categoryS":"hd___tv_shows","magnet":"?xt=urn:btih:e87ce5373494dbe27bddb427f0aa0d23db7de3ed&amp;dn=Six.Nations-Italy.v.Ireland-2013.02.03.720p.x264&amp;tr=udp%3A%2F%2Ftracker.openbittorrent.com%3A80&amp;tr=udp%3A%2F%2Fopen.demonii.com%3A1337&amp;tr=udp%3A%2F%2Ftracker.coppersurfer.tk%3A6969&amp;tr=udp%3A%2F%2Fexodus.desync.com%3A6969","seeders":1,"leechers":0,"uploader":"rugbybill","files":2,"time":1359974934,"description":"SPORT: Six Nations Rugby Union - Italy v France\nOn: BBC 1 HD     \nDate: Sunday 3rd February 2013 \nKO Time: 15:00 \n\nLive coverage from Rome as Italy meet France on the opening weekend of the 2013 Six Nations. The French began the 2012 campaign with a 30-12 victory over their continental neighbours, but went on to finish a disappointing fourth in the championship. Italy will be hoping for a repeat of the last time the two sides met in Rome in 2011, which ended in a memorable 22-21 victory for the Azzurri. Commentary by Alastair Eykyn and Jonathan Davies.\n\n\nGeneral\nComplete name                            : 2013.02.03.6N.Italy.v.France.720p.x264.mp4\nFormat                                   : MPEG-4\nFormat profile                           : Base Media\nCodec ID                                 : isom\nFile size                                : 2.71 GiB\nDuration                                 : 1h 43mn\nOverall bit rate mode                    : Variable\nOverall bit rate                         : 3 736 Kbps\n\nVideo\nID                                       : 1\nFormat                                   : AVC\nFormat/Info                              : Advanced Video Codec\nFormat profile                           : &lt;a class=&quot;__cf_email__&quot; href=&quot;/cdn-cgi/l/email-protection&quot; data-cfemail=&quot;feb6979996beb2cad0cf&quot;&gt;[email&amp;#160;protected]&lt;/a&gt;&lt;script cf-hash='f9e31' type=&quot;text/javascript&quot;&gt;\n/* &lt;![CDATA[ */!function(){try{var t=&quot;currentScript&quot;in document?document.currentScript:function(){for(var t=document.getElementsByTagName(&quot;script&quot;),e=t.length;e--;)if(t[e].getAttribute(&quot;cf-hash&quot;))return t[e]}();if(t&amp;&amp;t.previousSibling){var e,r,n,i,c=t.previousSibling,a=c.getAttribute(&quot;data-cfemail&quot;);if(a){for(e=&quot;&quot;,r=parseInt(a.substr(0,2),16),n=2;a.length-n;n+=2)i=parseInt(a.substr(n,2),16)^r,e+=String.fromCharCode(i);e=document.createTextNode(e),c.parentNode.replaceChild(e,c)}}}catch(u){}}();/* ]]&gt; */&lt;/script&gt;\nFormat settings, CABAC                   : Yes\nFormat settings, ReFrames                : 8 frames\nCodec ID                                 : avc1\nCodec ID/Info                            : Advanced Video Coding\nDuration                                 : 1h 43mn\nBit rate                                 : 3 608 Kbps\nMaximum bit rate                         : 13.6 Mbps\nWidth                                    : 1 280 pixels\nHeight                                   : 720 pixels\nDisplay aspect ratio                     : 16:9\nFrame rate mode                          : Constant\nFrame rate                               : 25.000 fps\nColor space                              : YUV\nChroma subsampling                       : 4:2:0\nBit depth                                : 8 bits\nScan type                                : Progressive\nBits/(Pixel*Frame)                       : 0.157\nStream size                              : 2.61 GiB (97%)\nWriting library                          : x264 core 129 r2230 1cffe9f\n\nAudio\nID                                       : 2\nFormat                                   : AAC\nFormat/Info                              : Advanced Audio Codec\nFormat profile                           : LC\nCodec ID                                 : 40\nDuration                                 : 1h 43mn\nBit rate mode                            : Variable\nBit rate                                 : 124 Kbps\nMaximum bit rate                         : 129 Kbps\nChannel(s)                               : 2 channels\nChannel positions                        : Front: L R\nSampling rate                            : 48.0 KHz\nCompression mode                         : Lossy\nDelay relative to video                  : 80ms\nStream size                              : 91.9 MiB (3%)\nLanguage                                 : English","torrent":{"xt":"urn:btih:e87ce5373494dbe27bddb427f0aa0d23db7de3ed","amp;dn":"Six.Nations-Italy.v.Ireland-2013.02.03.720p.x264","amp;tr":["udp%3A%2F%2Ftracker.openbittorrent.com%3A80","udp%3A%2F%2Fopen.demonii.com%3A1337","udp%3A%2F%2Ftracker.coppersurfer.tk%3A6969","udp%3A%2F%2Fexodus.desync.com%3A6969"],"infoHash":"e87ce5373494dbe27bddb427f0aa0d23db7de3ed","infoHashBuffer":{"type":"Buffer","data":[232,124,229,55,52,148,219,226,123,221,180,39,240,170,13,35,219,125,227,237]},"announce":[],"urlList":[]}}